<?xml version="1.0" encoding="utf-8"?>
<svg version="1.1" id="Layer_1" xmlns="http://www.w3.org/2000/svg" xmlns:xlink="http://www.w3.org/1999/xlink" x="0px" y="0px"
	 viewBox="0 0 1729.934 1666.695" enable-background="new 0 0 1729.934 1666.695" xml:space="preserve">
<g>
	<path opacity="0.9912" d="M799.394,1062.462c0.001,0.006,0.429-0.044,0.296-0.033c19.979-3.697,39.898-28.963,54.071-47.429
		l0.487-181.399l0,0l0,0v0c0,0-0.001,0.001-0.001,0.001c-27.322,19.432-39.196,29.329-57.541,57.536
		C752.946,961.966,766.593,1063.199,799.394,1062.462z"/>
	<path opacity="0.9912" d="M877.352,1015.676C877.352,1015.676,877.353,1015.676,877.352,1015.676
		c13.283,17.307,33.712,43.674,54.071,47.429c-0.134-0.011,0.294,0.038,0.296,0.033c31.873,0.716,37.083-82.185,21.906-130.689
		c-20.744-59.168-54.68-82.465-76.759-98.172l0.001,0.001c0,0-0.001-0.001-0.001-0.001L877.352,1015.676z"/>
	<path opacity="0.9912" d="M557.222,823.554c18.035,26.006,36.014,44.373,65.722,53.752c27.448,8.536,50.19,7.264,75.221-12.647
		c17.612-14.173,94.807-108.294,94.495-158.429c-0.33-43.824-27.988-83.653-76.291-72.975
		c-47.077,5.816-89.35,10.931-116.271,15.883c-4.426,0.727-8.861,1.472-13.313,2.253c-3.685,1.007-7.173,2.181-10.502,3.481
		c-0.64,0.235-1.239,0.469-1.789,0.704c-29.27,11.116-56.002,43.089-49.166,84.396C529.062,757.318,546.641,793.294,557.222,823.554
		z"/>
	<path opacity="0.9912" d="M964.443,774.905c15.708,25.819,27.929,42.247,46.908,65.547c21.979,26.154,42.748,47.809,85.404,40.248
		c34.637-5.906,57.99-28.278,78.009-57.146c9.368-26.763,26.102-62.606,30.77-78.802c4.889-18.062,2.558-41.643-12.026-61.2
		c-3.377-4.74-7.393-9.232-12.102-13.339c-6.198-5.526-13.401-10.162-21.48-13.581c-4.552-2.03-9.448-3.798-14.725-5.239
		c-4.419-0.775-8.82-1.515-13.214-2.237c-0.961-0.177-1.93-0.35-2.913-0.512c-39.966-6.508-79.055-11.138-113.459-15.388
		c-59.064-13.055-86.979,48.464-72.198,101.157C943.784,735.722,951.729,753.096,964.443,774.905z"/>
	<path opacity="0.9912" d="M1622.292,897.301c-0.38-27.029-4.498-49.448-13.595-77.592c-6.443-18.413-10.797-32.445-30.313-44.808
		c-32.26-21.104-67.63-6.492-97.75,22.892l2.359-2.003c-45.376,38.109-28.653,67.76-68.21,108.258
		c-61.365,34.336-158.696,91.514-215.262,129.612c52.021-17.263,128.354-47.416,179.096-68.149
		c56.6-23.074,66.003-25.151,86.927-49.844c23.547-27.951,26.027-52.237,42.214-69.672c3.144-3.027,25.293-22.978,36.509-23.37
		c0.002,0,0.839,0.208,0.839,0.208c0.037,0.062,0.238,0.143,0.3,0.24c0.05,0.014,0.1,0.093,0.163,0.123
		c0.66,0.591,1.1,0.903,1.75,1.642c7.136,20.444,11.493,37.757,13.115,62.339c1.637,39.96-7.408,29.386,29.147,64.517
		c18.873,18.264,29.923,29.834,43.328,48.036c-0.028,0.111-0.055,0.228-0.079,0.362c-5.703,9.432-21.386,12.286-30.492,13.106
		c-34.746,3.446-26.387,4.669-56.563-2.259c-55.871-12.708-83.773,10.003-200.942,74.378
		c-47.727,26.637-112.671,63.577-162.361,95.102c-1.432-6.864-3.122-13.767-5.066-20.7c-0.697-54.1,12.689-97.21,20.989-141.221
		c20.264-6.182,45.871-15.75,64.331-28.585c49.17-36.837,61.911-115.906,56.195-177.065c0.066,0.484-0.61-4.687-0.336-2.563
		c-6.859-37.814-11.626-55.416-17.429-84.727c149.974-147.962,151.167-430.542-60.743-595.026
		c-66.683-53.382-242.017-95.35-330.648-96.905c-249.933-4.938-475.152,55.484-562.775,286.056
		c-54.76,149.968-1.889,322.008,84.699,414.344c-7.396,36.567-15.294,68.745-16.558,82.252
		c-8.043,85.961,23.08,150.113,51.094,171.61c23.224,17.834,47.037,26.983,66.776,32.52c1.013,5.251,2.094,10.503,3.213,15.77
		c-58.461-38.874-132.457-78.749-224.352-135.575l-2.163-2.062c-26.664-24.745-21.89-56.309-57.045-94.21
		c-39.222-38.447-88.244-51.081-120.244-6.448c-20.516,28.018-22.661,67.95-24.59,102.096
		c-20.421,19.048-47.442,38.047-64.554,71.173c-21.482,40.635-5.139,89.341,73.558,100.656
		c59.468,7.862,71.655-12.662,121.259-7.461c85.284,35.686,222.247,91.603,309.463,121.715c-4.705,25.465-5.857,50.406-3.945,74.355
		c-56.094,20.635-116.222,47.488-213.062,79.049c-62.553,9.576-58.129-30.141-153.445-2.603
		c-17.072,5.018-58.454,48.388-28.484,99.874c8.835,14.8,18.088,21.938,63.329,65.234c10.619,54.464,2.196,73.406,21.701,101.979
		c36.117,51.723,102.256,33.569,142.939-42.918c-0.404,0.711-0.104,0.181-0.19,0.333c13.145-25.367,21.517-41.521,33.39-58.67
		c57.255-35.109,127.35-80.021,177.171-116.144c28.183,42.103,67.846,73.843,113.142,89.288c-0.18-0.069,2.074,0.785,1.176,0.437
		c45.199,11.555,94.442,21.12,164.573,4.193c119.407,28.854,221.517-14.43,277.365-93.512
		c51.628,36.175,123.66,81.342,173.667,111.278c42.644,45.326,25.269,66.178,66.976,101.788l-1.801-1.52
		c29.232,27.942,60.65,47.602,96.544,24.992c39.495-27.665,39.242-80.767,43.635-124.899c19.051-17.013,32.658-26.406,48.924-44.206
		c78.127-85.8-34.991-150.948-122.82-119.651c-54.271,19.964-56.427-11.936-260.445-73.352c1.963-24.906,0.516-50.925-4.727-77.557
		c91.958-29.873,218.286-80.501,305.591-117.398c-2.981,1.292-0.775,0.342-1.416,0.622c49.959-15.953,50.952,14.009,110.364,5.461
		c63.575-0.804,93.917-33.657,97.054-69.775C1696.232,984.832,1700.366,970.245,1622.292,897.301z M502.532,945.813
		c-24.815-28.898-28.725-84.274-25.416-124.358c12.781-72.477,28.982-133.333,16.449-210.707l0.165,2.083
		c-5.615-45.851-28.585-69.563-38.259-109.664c-17.141-70.874-9.803-85.941,2.101-102.587
		c-31.636,19.591-32.025,59.357-32.855,105.844c-0.014-0.102,0.114,1.082,0.061,0.607l0.001,0.055
		c1.176,63.754,29.338,62.669,16.466,172.542c-2.244,16.017-5.208,32.489-8.336,48.304
		c-50.192-72.658-71.823-162.471-73.643-251.784c0,0-10.389-176.532,156.128-295.339c-0.021,0.014,0.01-0.008,0.056-0.041
		c0.548-0.355,0.256-0.166,2.891-1.874c108.553-70.367,264.328-85.046,393.554-83.143c54.896,0.227,234.182,29.71,312.749,92.537
		c168.145,136.967,195.763,368.146,75.228,530.663c-1.626-8.494-3.345-18.028-5.222-29.249
		c-17.207-109.002,13.689-125.315,14.783-184.556c-0.054,0.475,0.074-0.709,0.061-0.607c-0.84-46.326-1.152-86.213-32.868-105.845
		c10.01,14.008,15.846,26.616,9.706,63.699c-15.408,91.152-39.072,92.972-45.88,148.551l0.165-2.084
		c-14.933,92.246,14.042,182.679,16.695,213.295c3.709,40.082-2.633,94.939-25.66,121.833c1.799-1.546,0.442-0.377,0.817-0.699
		c-22.766,20.469-49.058,28.85-79.991,42.498c-34.666,15.327-78.734,47.134-93.884,84.643c-7.635,19.344-8.979,37.429-4.916,58.459
		c-33.314,10.668-61.304,13.36-111.915,15.786c-152.23,4.268-215.414,0.839-261.325-13.445
		c13.034-66.451-35.799-120.363-98.843-143.465c0.876,0.254,0.171,0.042,0.334,0.086c-44.261-17.316-59.302-23.51-80.033-42.579
		C503.246,946.445,502.242,945.565,502.532,945.813z M1083.181,1243.901c-8.458,9.829-19.137,18.334-31.336,25.651
		c15.786-31.948,15.014-101.812-1.135-133.646c6.512-3.86,12.284-7.908,17.646-12.098c-4.8,1.776-9.425,3.381-13.951,4.843
		c6.492-32.845,16.805-50.806,42.97-71.232l-0.993,0.868c12.547-7.635,23.09-13.311,32.365-17.704
		C1092.901,1091.781,1068.535,1178.692,1083.181,1243.901z M596.146,1036.446c11.522,4.5,21.98,10.932,41.909,22.729l-1.783-1.589
		c28.956,24.874,37.432,41.189,43.627,73.474c-5.217-1.637-10.216-3.414-15.098-5.338c0,0,1.269,1.031,3.648,2.965
		c14.524,11.504,33.833,20.178,55.905,26.586c-6.794,14.191-10.822,35.66-11.999,58.293c-6.987-2.328-13.55-4.747-19.912-7.181
		c0.125-25.251-3.759-50.399-11.675-65.962c-15.368,28.78-17.379,91.511-4.702,125.943c-9.689-6.122-19.409-13.156-29.325-21.257
		C661.18,1178.312,635.041,1087.031,596.146,1036.446z M1038.625,1205.759c-5.919,2.489-12.677,5.181-20.546,7.829
		c-1.005-22.708-4.865-44.439-11.496-59.07c17.764-5.214,31.469-11.254,42.871-17.871
		C1041.67,1153.321,1038.06,1179.747,1038.625,1205.759z M993.678,1220.504c-7.438,1.737-15.592,3.326-24.579,4.661
		c-1.005-22.998-4.699-45.11-10.992-60.503c4.195-0.564,8.216-1.152,12.025-1.758c12.945-2.304,24.297-4.913,34.367-7.78
		C997.525,1171.301,993.913,1195.706,993.678,1220.504z M944.727,1227.921c-6.337,0.536-12.51,1.021-18.519,1.455
		c-0.964-22.954-4.521-44.963-10.609-60.414c13.992-1,27.108-2.315,38.897-3.824
		C948.383,1181.176,945.127,1204.215,944.727,1227.921z M901.92,1230.906c-8.052,0.43-15.79,0.763-23.224,1.002
		c-0.725-22.973-4.038-45.165-9.908-60.977c14.904-0.189,29.419-0.801,43.151-1.719
		C905.932,1185.013,902.584,1207.541,901.92,1230.906z M854.314,1232.378c-8.845,0.048-17.228-0.045-25.169-0.271
		c-0.516-23.344-3.704-46.019-9.55-62.181c14.947,0.835,29.951,1.149,44.63,1.049
		C858.338,1186.865,855.013,1209.237,854.314,1232.378z M804.723,1230.926c-6.952-0.485-13.519-1.083-19.763-1.776
		c-0.319-23.8-3.488-47.043-9.559-63.39c12.902,1.768,26.154,3.043,39.49,3.888C808.945,1185.5,805.527,1207.823,804.723,1230.926z
		 M760.555,1225.705c-8.631-1.503-16.546-3.206-23.921-5.052c-0.409-25.017-4.266-49.43-11.554-65.172
		c14.442,4.149,30.047,7.337,46.273,9.708C765.178,1180.657,761.54,1202.745,760.555,1225.705z M692.379,1210.814
		c6.114,4.579,12.623,8.954,19.638,13.055c-0.323,23.438,2.371,47.115,8.169,64.424c-13.12-4.863-25.864-10.931-38.609-18.537
		C688.254,1254.718,691.858,1232.941,692.379,1210.814z M736.451,1236.034c7.433,3.11,15.37,5.937,23.89,8.431
		c0.418,20.815,3.033,41.055,7.929,56.465c-14.427-2.491-28.052-5.789-41.239-10.22
		C732.491,1276.159,735.629,1256.453,736.451,1236.034z M784.493,1250.286c6.456,1.249,13.207,2.327,20.275,3.22
		c0.766,19.492,3.431,38.208,8.043,52.693c-13.147-0.996-25.545-2.308-37.379-4.107
		C780.343,1288.045,783.372,1269.613,784.493,1250.286z M828.754,1255.726c8.206,0.5,16.788,0.779,25.784,0.812
		c0.956,19.409,3.8,37.941,8.571,52.158c-15.224-0.488-29.464-1.09-42.914-1.976C824.849,1292.752,827.699,1274.68,828.754,1255.726
		z M878.504,1256.075c7.518-0.306,15.286-0.761,23.335-1.384c0.11-0.009,0.219-0.018,0.328-0.027
		c0.981,19.771,3.907,38.698,8.794,53.158c-12.144,0.913-23.765,1.314-34.447,1.272c-2.246-0.062-4.464-0.126-6.668-0.191
		C874.683,1294.57,877.562,1275.765,878.504,1256.075z M926.31,1252.235c6.379-0.803,12.656-1.744,18.834-2.847
		c1.116,19.858,4.265,38.817,9.446,53.067c-12.34,2.131-24.626,3.7-36.498,4.776C922.915,1292.241,925.64,1272.601,926.31,1252.235z
		 M969.32,1244.01c8.423-2.286,16.64-4.992,24.642-8.215c0.97,20.662,4.32,40.459,10.061,54.757
		c-13.907,4.451-28.421,7.99-42.952,10.733C966.167,1285.834,968.893,1265.225,969.32,1244.01z M1018.339,1223.897
		c6.99-4.069,13.796-8.662,20.417-13.849c0.913,23.083,5.136,45.388,12.672,59.752c-12.697,7.566-27.014,13.854-42.165,19.018
		C1015.494,1271.817,1018.488,1247.831,1018.339,1223.897z M95.965,1002.414C94.59,1001.213,95.423,1001.086,95.965,1002.414
		L95.965,1002.414z M256.082,1014.985c-4.465-2.277-26.77-7.717-58.702-5.427c-23.804,2.62-62.251,12.551-95.966-3.886
		c-2.257-1.072-3.734-1.968-4.682-2.656c0.344-1.064,0.363-1.661,3.688-7.277c25.525-37.864,67.096-53.775,68.439-80.132
		c1.83-35.885,0.938-55.7,9.374-79.494c5.18-8.246,6.599-8.983,6.599-8.983c0.017,0.007,0.03-0.045,0.009-0.056
		c-0.002,0.002-0.421,0.074-0.588,0.078c-0.112,0.037-0.429,0.031-0.48,0.012c-0.079-0.001-0.15-0.013-0.194-0.042
		c-0.002,0.014-0.071-0.063,0.001-0.05c0.022-0.005,0.044-0.017,0.067-0.036c2.534-0.527,12.614,3.981,15.565,5.322
		c47.762,29.247,31.801,62.768,85.397,103.457c9.693,7.378,128.303,60.212,251.685,100.734
		c8.058,37.876,17.957,76.66,17.351,123.209c-2.014,7.22-3.733,14.411-5.175,21.565
		C492.222,1144.636,392.173,1085.289,256.082,1014.985z M377.376,1472.062c-35.474,38.757-30.873,49.574-70.165,90.678
		c-2.013,2.145-3.626,3.839-5.785,6.248c-4.234,2.662-12.551,7.315-15.328,5.733c-0.022-0.029-0.043-0.047-0.066-0.057
		c-0.066,0.012-0.037-0.084-0.059-0.071c-0.008-0.014,0.03-0.075,0.027-0.05c0.049-0.094,0.213-0.204-0.035-0.316
		c-0.544-1.144-1.596-0.627-4.906-9.449c-9.362-107.777-1.678-84.179-76.753-155.401c-6.85-8.077-4.906-7.9-6.063-11.854
		c0.504-1.21-0.564-2.113,3.803-7.166c53.155-16.792,54.25-1.1,94.643,0.642c19.352,0.757,42.855-5.116,47.901-7.424
		c68.377-31.284,134.683-69.781,199.605-116.687c4.469,43.089,18.881,82.763,40.453,116.174
		C518.086,1407.444,385.57,1463.11,377.376,1472.062z M1012.265,1429.705c0.066-0.022-0.275,0.121,0.125-0.036
		c-71.089,36.034-87.487,35.302-146.545,50.14c-49.908-12.467-71.284-12.844-147.545-47.927
		c-32.253-14.84-89.719-74.109-107.939-142.47c-18.309-76.382-7.066-122.711-7.672-127.047
		c-6.978-49.94-28.041-95.97-56.341-138.551c9.715,2.272,17.839,3.806,23.568,5.459c6.568,1.308,11.991,2.579,16.868,4.002
		c6.236,49.838,44.539,187.022,59.227,215.045c0.105-0.439,0.199-0.885,0.301-1.327c94.357,143.021,392.19,107.111,437.145-1.869
		c0.063,0.269,0.119,0.541,0.183,0.808c14.754-28.148,51.161-159.209,58.703-211.279c8.518-3.377,16.055-5.724,23.437-7.797
		c-0.38,0.165,7.769-1.429,19.994-4.733c-28.776,42.851-50.406,89.466-57.618,141.181
		C1143.911,1282.527,1095.779,1381.857,1012.265,1429.705z M1445.639,1574.589c0.044-0.003,0.076-0.006,0.077-0.006
		c0.145-0.067,0.344,0.021,0.459-0.017c0.067-0.001,0.134,0.013,0.2,0.041c0.077-0.018,0.18,0.018,0.201,0.094
		C1446.279,1574.692,1445.964,1574.649,1445.639,1574.589z M1537.465,1399.114
		C1538.237,1400.191,1537.69,1400.132,1537.465,1399.114L1537.465,1399.114z M1383.24,1380.275
		c28.948,13.11,55.383,10.865,81.961,4.001c-0.383,0.112,1.009-0.291-0.832,0.245c18.785-4.184,34.423-5.083,64.124,7.659
		c2.804,1.6,6.318,3.844,8.381,6.195c0.093,0.106,0.153,0.186,0.231,0.28c-0.13,0.289-0.363,0.809-0.811,1.645
		c-6.551,12.028-35.473,34.892-45.029,42.85c-30.045,25.406-28.694,23.501-31.608,57.079c-2.552,33.448-2.274,47.576-11.132,70.144
		c-3.481,5.021-0.573,0.025-3.557,4.069c-1.837-0.47-3.893-1.479-5.291-2.235c-49.212-25.781-38.646-58.222-81.712-96.96
		c-16.777-15.358-11.919-11.962-70.395-37.161c-41.194-17.583-96.167-40.164-140.758-56.369
		c21.918-32.843,36.048-71.495,40.445-113.496C1258.56,1313.173,1368.499,1373.599,1383.24,1380.275z"/>
</g>
</svg>
